#!OML:ASF H:\Dans Jumps\Project 1\Capture day 1\Session 1\subject.ASF
:FULLY-SPECIFIED
:DEGREES
538
root -0.0263291 17.7285 2.17273 6.51092 0.405507 -1.8981
lowerback -2.8615 -0.323988 0.0877923
upperback 0.723711 -0.476211 1.78421
thorax 2.36175 -0.249421 1.75983
lowerneck -13.007 -0.643399 -2.46036
upperneck 21.8488 -0.662128 1.38701
head 9.00316 -0.364728 0.809668
rclavicle 4.96962e-017 7.95139e-015
rhumerus -27.6953 -17.7607 -79.3582
rradius 22.7116
rwrist 34.5317
rhand -21.2956 -25.8626
rfingers 7.12502
rthumb 5.08895 -55.7815
lclavicle 4.96962e-017 7.95139e-015
lhumerus -26.6532 -6.37736 92.8908
lradius 21.3598
lwrist 10.3159
lhand -25.7651 -3.25261
lfingers 7.12502
lthumb 0.772618 26.7257
rfemur -12.2691 -1.48903 18.9874
rtibia 19.9765
rfoot -12.5205 -2.64128
rtoes 11.491
lfemur -12.1328 5.61319 -15.6143
ltibia 18.1147
lfoot -8.54544 6.5578
ltoes -3.21463
539
root -0.0268204 17.7276 2.18439 6.49184 0.362962 -1.89639
lowerback -2.91041 -0.305949 0.0727014
upperback 0.719306 -0.451695 1.76875
thorax 2.38396 -0.237343 1.75342
lowerneck -12.9755 -0.660328 -2.48127
upperneck 21.6893 -0.687512 1.41625
head 8.94311 -0.374707 0.81958
rclavicle -3.23025e-016 1.49089e-014
rhumerus -27.7085 -17.8115 -79.3988
rradius 22.663
rwrist 34.6254
rhand -21.2481 -25.85
rfingers 7.12502
rthumb 5.13484 -55.7678
lclavicle -3.23025e-016 1.49089e-014
lhumerus -26.642 -6.17026 92.7573
lradius 21.1871
lwrist 10.1108
lhand -25.7785 -3.30552
lfingers 7.12502
lthumb 0.759672 26.6729
rfemur -12.2147 -1.47662 18.985
rtibia 19.9843
rfoot -12.5583 -2.62207
rtoes 11.4679
lfemur -12.0526 5.6155 -15.6094
ltibia 18.1072
lfoot -8.58083 6.60817
ltoes -3.22432
540
root -0.0270774 17.7268 2.19573 6.47473 0.325662 -1.889
lowerback -2.95695 -0.291104 0.0575858
upperback 0.714201 -0.431295 1.74973
thorax 2.4042 -0.227285 1.74319
lowerneck -12.9416 -0.674964 -2.48971
upperneck 21.5203 -0.709719 1.43363
head 8.87931 -0.383445 0.823688
rclavicle -5.98839e-015 1.49089e-014
rhumerus -27.7303 -17.8405 -79.4489
rradius 22.6324
rwrist 34.6918
rhand -21.1915 -25.8463
rfingers 7.12502
rthumb 5.18946 -55.7628
lclavicle -5.98839e-015 1.49089e-014
lhumerus -26.6403 -5.94909 92.6132
lradius 21.0131
lwrist 9.90994
lhand -25.8124 -3.42673
lfingers 7.12502
lthumb 0.726913 26.5518
rfemur -12.163 -1.47838 18.9755
rtibia 19.9928
rfoot -12.5956 -2.59338
rtoes 11.4462
lfemur -11.9733 5.60874 -15.6124
ltibia 18.0951
lfoot -8.61207 6.66106
ltoes -3.23093
541
root -0.0272097 17.7261 2.20671 6.45795 0.289075 -1.87672
lowerback -3.00151 -0.278578 0.0401617
upperback 0.710194 -0.413823 1.7287
thorax 2.42456 -0.218715 1.73207
lowerneck -12.906 -0.687279 -2.49312
upperneck 21.3434 -0.728385 1.44502
head 8.81255 -0.390759 0.825309
rclavicle 3.42904e-015 9.93923e-015
rhumerus -27.7633 -17.8281 -79.5129
rradius 22.6316
rwrist 34.7129
rhand -21.1254 -25.8563
rfingers 7.12502
rthumb 5.25323 -55.7712
lclavicle 3.42904e-015 9.93923e-015
lhumerus -26.6441 -5.71119 92.4597
lradius 20.8318
lwrist 9.70621
lhand -25.8646 -3.62796
lfingers 7.12502
lthumb 0.676532 26.3507
rfemur -12.1124 -1.48245 18.9599
rtibia 20.0009
rfoot -12.6329 -2.56364
rtoes 11.4243
lfemur -11.8934 5.59617 -15.6218
ltibia 18.0789
lfoot -8.63815 6.71721
ltoes -3.23896
542
root -0.027245 17.7254 2.21735 6.44189 0.252102 -1.86442
lowerback -3.0458 -0.267555 0.0247455
upperback 0.709263 -0.398433 1.70677
thorax 2.44797 -0.211172 1.71881
lowerneck -12.879 -0.69663 -2.48849
upperneck 21.1634 -0.742686 1.4487
head 8.74631 -0.396178 0.823461
rclavicle 3.47873e-015 -4.17448e-015
rhumerus -27.8023 -17.7771 -79.5909
rradius 22.6573
rwrist 34.6959
rhand -21.0467 -25.8771
rfingers 7.12502
rthumb 5.32922 -55.7901
lclavicle 3.47873e-015 -4.17448e-015
lhumerus -26.6507 -5.45593 92.2955
lradius 20.6495
lwrist 9.49075
lhand -25.9248 -3.88197
lfingers 7.12502
lthumb 0.618341 26.0969
rfemur -12.0626 -1.48769 18.9441
rtibia 20.0066
rfoot -12.669 -2.53448
rtoes 11.3924
lfemur -11.8147 5.58241 -15.6319
ltibia 18.0616
lfoot -8.66154 6.77343
ltoes -3.24512
543
root -0.0274073 17.7248 2.22759 6.42786 0.212715 -1.85914
lowerback -3.08935 -0.25721 0.0143469
upperback 0.709707 -0.384189 1.68708
thorax 2.4724 -0.204157 1.705
lowerneck -12.856 -0.703675 -2.48549
upperneck 20.9822 -0.753852 1.45495
head 8.6805 -0.399994 0.82312
rclavicle 1.41634e-015 5.96354e-015
rhumerus -27.8428 -17.7099 -79.6746
rradius 22.691
rwrist 34.6619
rhand -20.9702 -25.8933
rfingers 7.12502
rthumb 5.4031 -55.8044
lclavicle 1.41634e-015 5.96354e-015
lhumerus -26.6612 -5.17798 92.1204
lradius 20.469
lwrist 9.25333
lhand -26.0038 -4.17891
lfingers 7.12502
lthumb 0.54209 25.8001
rfemur -12.0151 -1.482 18.9368
rtibia 20.0083
rfoot -12.7017 -2.51499
rtoes 11.356
lfemur -11.7416 5.57121 -15.6339
ltibia 18.0467
lfoot -8.68238 6.82933
ltoes -3.25319
544
root -0.0278126 17.7242 2.23724 6.4171 0.170783 -1.86314
lowerback -3.13404 -0.247055 0.00933008
upperback 0.71378 -0.370549 1.67097
thorax 2.50122 -0.197422 1.69183
lowerneck -12.8392 -0.710209 -2.48695
upperneck 20.7969 -0.763961 1.46505
head 8.61463 -0.403248 0.824937
rclavicle 5.2181e-016 5.56597e-015
rhumerus -27.8677 -17.6821 -79.7483
rradius 22.7041
rwrist 34.6625
rhand -20.9015 -25.8963
rfingers 7.12502
rthumb 5.46943 -55.8057
lclavicle 5.2181e-016 5.56597e-015
lhumerus -26.6674 -4.88802 91.9376
lradius 20.2936
lwrist 8.9988
lhand -26.0836 -4.44644
lfingers 7.12502
lthumb 0.464959 25.5328
rfemur -11.9709 -1.45722 18.9412
rtibia 20.0045
rfoot -12.7304 -2.51284
rtoes 11.3234
lfemur -11.6785 5.56557 -15.6248
ltibia 18.0374
lfoot -8.70113 6.88308
ltoes -3.27696
545
root -0.0284538 17.7235 2.24639 6.41042 0.128015 -1.87346
lowerback -3.17844 -0.237817 0.00600851
upperback 0.717536 -0.358268 1.65843
thorax 2.52961 -0.191364 1.68133
lowerneck -12.8253 -0.716596 -2.49067
upperneck 20.612 -0.773404 1.47581
head 8.54958 -0.406311 0.827437
rclavicle -1.73937e-016 -2.78299e-015
rhumerus -27.88 -17.7017 -79.8062
rradius 22.6899
rwrist 34.7065
rhand -20.8447 -25.8748
rfingers 7.12502
rthumb 5.52427 -55.7828
lclavicle -1.73937e-016 -2.78299e-015
lhumerus -26.6731 -4.58426 91.7492
lradius 20.1203
lwrist 8.72317
lhand -26.1682 -4.69697
lfingers 7.12502
lthumb 0.383245 25.2824
rfemur -11.9312 -1.41769 18.9541
rtibia 19.9962
rfoot -12.7546 -2.5242
rtoes 11.2905
lfemur -11.626 5.56572 -15.608
ltibia 18.0341
lfoot -8.7214 6.93312
ltoes -3.30123
546
root -0.0292722 17.7229 2.25509 6.40731 0.0862039 -1.88891
lowerback -3.22115 -0.229905 0.00515017
upperback 0.719856 -0.347885 1.64884
thorax 2.55565 -0.186224 1.67241
lowerneck -12.8021 -0.723736 -2.49692
upperneck 20.4198 -0.783307 1.48578
head 8.48052 -0.409896 0.830033
rclavicle 1.44119e-015 -1.78906e-015
rhumerus -27.8864 -17.7527 -79.8526
rradius 22.6615
rwrist 34.7774
rhand -20.7955 -25.8408
rfingers 7.12502
rthumb 5.57182 -55.7476
lclavicle 1.44119e-015 -1.78906e-015
lhumerus -26.6801 -4.27276 91.5583
lradius 19.9539
lwrist 8.43655
lhand -26.2648 -4.92903
lfingers 7.12502
lthumb 0.289995 25.0505
rfemur -11.896 -1.36907 18.9736
rtibia 19.9857
rfoot -12.7757 -2.54416
rtoes 11.2689
lfemur -11.5827 5.57037 -15.5849
ltibia 18.0352
lfoot -8.74331 6.97845
ltoes -3.32501
547
root -0.0301358 17.7223 2.26339 6.40695 0.0482578 -1.90149
lowerback -3.26207 -0.224738 0.00013579
upperback 0.720183 -0.340963 1.64023
thorax 2.57877 -0.182864 1.66665
lowerneck -12.7691 -0.73205 -2.50648
upperneck 20.224 -0.794044 1.49455
head 8.40866 -0.414289 0.832699
rclavicle -5.29264e-015 5.36719e-015
rhumerus -27.894 -17.8069 -79.895
rradius 22.6356
rwrist 34.8451
rhand -20.7461 -25.8058
rfingers 7.12502
rthumb 5.61946 -55.7113
lclavicle -5.29264e-015 5.36719e-015
lhumerus -26.688 -3.96514 91.3692
lradius 19.793
lwrist 8.15758
lhand -26.3135 -5.00733
lfingers 7.12502
lthumb 0.242914 24.9723
rfemur -11.8645 -1.32165 18.9903
rtibia 19.9746
rfoot -12.7948 -2.56598
rtoes 11.252
lfemur -11.5459 5.57936 -15.5653
ltibia 18.0383
lfoot -8.7687 7.0161
ltoes -3.34592
548
root -0.0308968 17.7218 2.27143 6.40772 0.0171841 -1.90967
lowerback -3.29949 -0.222378 -0.00723526
upperback 0.717751 -0.337579 1.63071
thorax 2.59719 -0.181272 1.6611
lowerneck -12.7278 -0.74187 -2.51214
upperneck 20.0264 -0.806638 1.49751
head 8.33487 -0.419887 0.832586
rclavicle 1.73937e-016 2.78299e-015
rhumerus -27.9149 -17.837 -79.9412
rradius 22.6334
rwrist 34.8822
rhand -20.6879 -25.785
rfingers 7.12502
rthumb 5.67571 -55.689
lclavicle 1.73937e-016 2.78299e-015
lhumerus -26.6971 -3.66869 91.1832
lradius 19.6403
lwrist 7.8984
lhand -26.3087 -4.91051
lfingers 7.12502
lthumb 0.247601 25.0691
rfemur -11.8344 -1.28479 19.0021
rtibia 19.9637
rfoot -12.8124 -2.58409
rtoes 11.2283
lfemur -11.5124 5.59097 -15.5512
ltibia 18.042
lfoot -8.79848 7.04325
ltoes -3.35129
549
root -0.0314761 17.7213 2.27912 6.40858 -0.00626887 -1.91421
lowerback -3.3324 -0.223185 -0.0154195
upperback 0.713849 -0.3383 1.62062
thorax 2.61169 -0.181714 1.65521
lowerneck -12.6842 -0.75237 -2.51625
upperneck 19.8301 -0.819866 1.49722
head 8.26125 -0.426018 0.831092
rclavicle -4.22417e-016 -3.18055e-015
rhumerus -27.9502 -17.8238 -79.9982
rradius 22.6646
rwrist 34.8671
rhand -20.6237 -25.785
rfingers 7.12502
rthumb 5.73763 -55.6874
lclavicle -4.22417e-016 -3.18055e-015
lhumerus -26.7039 -3.38803 91.002
lradius 19.488
lwrist 7.66348
lhand -26.255 -4.6703
lfingers 7.12502
lthumb 0.299445 25.3092
rfemur -11.8044 -1.26076 19.0091
rtibia 19.9534
rfoot -12.8312 -2.59643
rtoes 11.2021
lfemur -11.4806 5.60412 -15.5418
ltibia 18.045
lfoot -8.83128 7.06035
ltoes -3.34187
